<?xml version="1.0" encoding="utf-8"?>
<!-- Generator: Adobe Illustrator 24.1.2, SVG Export Plug-In . SVG Version: 6.00 Build 0)  -->
<svg version="1.1" id="Layer_1" xmlns="http://www.w3.org/2000/svg" xmlns:xlink="http://www.w3.org/1999/xlink" x="0px" y="0px"
	 viewBox="0 0 1000 1000" style="enable-background:new 0 0 1000 1000;" xml:space="preserve">
<style type="text/css">
	.st0{fill:#2CA01C;}
	.st1{fill:#2D476C;}
</style>
<g>
	<g>
		<path class="st0" d="M522.25,358.7l55.38,30.58l0.64,41.49l-66.36-35.86l-23.95,13.31c-6.72,3.73-14.97,3.35-21.31-0.98
			l-11.25-7.69L522.25,358.7z"/>
		<path class="st1" d="M422.26,472.89l-0.49-31.74l38.4,23.09c0,0-20.47-2.62-31.45,12.95L422.26,472.89z"/>
		<polygon class="st1" points="425.85,386.88 497.6,342.29 511.01,351.19 440.18,393.73 		"/>
		<polygon class="st1" points="578.71,445.65 512.1,407.06 487.8,421.69 572.69,469.03 579.4,465.28 		"/>
		<polygon class="st1" points="420.6,395.9 420.89,425.13 532.49,491.53 556.07,478.33 		"/>
		<path class="st0" d="M473.55,475.77c-8.15-4.79-23.14-2.42-30.13,3.5l-6.01,4.07l57.38,29.29l22.81-12.76L473.55,475.77z"/>
	</g>
	<g>
		<g>
			<path class="st0" d="M175.26,628.88v-65.45h47.09v11.89h-34.74v17.88h32.86v11.42h-32.86v24.25H175.26z"/>
			<path class="st0" d="M269.36,629.16h-12.83l-27.25-65.82h13.86l19.76,51.03l19.85-51.03h13.86L269.36,629.16z"/>
			<path class="st1" d="M353.99,609.59h-18.54v19.29H323.1v-65.54c10.3,0,20.6-0.09,30.9-0.09
				C386.01,563.24,386.11,609.59,353.99,609.59z M335.46,598.26h18.54c15.82,0,15.73-23.22,0-23.22h-18.54V598.26z"/>
			<path class="st1" d="M432.92,616.52h-34.27l-5.62,12.36h-13.39l29.4-65.54h13.48l29.4,65.54h-13.48L432.92,616.52z M415.79,577.1
				L403.61,605h24.34L415.79,577.1z"/>
			<path class="st1" d="M515.59,628.88h-14.7l-19.1-21.91H469.9v21.91h-12.36v-65.63c10.39,0,20.79,0.09,31.18,0.09
				c15.45,0.09,23.59,10.39,23.59,21.72c0,8.99-4.12,18.07-16.57,20.6l19.85,22.38V628.88z M469.9,574.85v20.97h18.82
				c7.86,0,11.24-5.24,11.24-10.49s-3.46-10.49-11.24-10.49H469.9z"/>
			<path class="st1" d="M540.49,574.57h-20.79v-11.24c18.91,0,34.92,0,53.93,0v11.24h-20.79v54.3h-12.36V574.57z"/>
			<path class="st1" d="M624.19,563.24h12.36v65.63h-7.68v0.09l-34.46-44.29v44.19h-12.36v-65.54h10.02l32.11,40.63V563.24z"/>
			<path class="st1" d="M696.75,628.88h-49.06c0-21.82,0-43.72,0-65.54h49.06v11.98h-36.8v15.07h35.48v11.52h-35.48v14.79h36.8
				V628.88z"/>
			<path class="st1" d="M764.44,628.88h-14.7l-19.1-21.91h-11.89v21.91h-12.36v-65.63c10.39,0,20.79,0.09,31.18,0.09
				c15.45,0.09,23.59,10.39,23.59,21.72c0,8.99-4.12,18.07-16.57,20.6l19.85,22.38V628.88z M718.75,574.85v20.97h18.82
				c7.87,0,11.24-5.24,11.24-10.49s-3.46-10.49-11.24-10.49H718.75z"/>
			<path class="st1" d="M812.85,579.16c-2.25-3.75-8.43-7.3-15.54-7.3c-9.18,0-13.58,3.84-13.58,8.71c0,5.71,6.74,7.3,14.61,8.24
				c13.67,1.69,26.4,5.24,26.4,20.88c0,14.61-12.92,20.88-27.53,20.88c-13.39,0-23.69-4.12-28.56-16.1l10.3-5.34
				c2.9,7.21,10.49,10.39,18.45,10.39c7.77,0,15.07-2.72,15.07-9.83c0-6.18-6.46-8.71-15.17-9.64
				c-13.39-1.59-25.75-5.15-25.75-19.85c0-13.48,13.29-19.01,25.37-19.1c10.21,0,20.79,2.9,25.75,13.01L812.85,579.16z"/>
		</g>
	</g>
</g>
</svg>
